<svg width="26" height="30" viewBox="0 0 26 30" fill="none" xmlns="http://www.w3.org/2000/svg">
<g filter="url(#filter0_d_187_103)">
<path d="M6 22C5.45 22 4.97917 21.8042 4.5875 21.4125C4.19583 21.0208 4 20.55 4 20V6C4 5.45 4.19583 4.97917 4.5875 4.5875C4.97917 4.19583 5.45 4 6 4H7V2H9V4H17V2H19V4H20C20.55 4 21.0208 4.19583 21.4125 4.5875C21.8042 4.97917 22 5.45 22 6V20C22 20.55 21.8042 21.0208 21.4125 21.4125C21.0208 21.8042 20.55 22 20 22H6ZM6 20H20V10H6V20ZM6 8H20V6H6V8ZM13 14C12.7167 14 12.4792 13.9042 12.2875 13.7125C12.0958 13.5208 12 13.2833 12 13C12 12.7167 12.0958 12.4792 12.2875 12.2875C12.4792 12.0958 12.7167 12 13 12C13.2833 12 13.5208 12.0958 13.7125 12.2875C13.9042 12.4792 14 12.7167 14 13C14 13.2833 13.9042 13.5208 13.7125 13.7125C13.5208 13.9042 13.2833 14 13 14ZM9 14C8.71667 14 8.47917 13.9042 8.2875 13.7125C8.09583 13.5208 8 13.2833 8 13C8 12.7167 8.09583 12.4792 8.2875 12.2875C8.47917 12.0958 8.71667 12 9 12C9.28333 12 9.52083 12.0958 9.7125 12.2875C9.90417 12.4792 10 12.7167 10 13C10 13.2833 9.90417 13.5208 9.7125 13.7125C9.52083 13.9042 9.28333 14 9 14ZM17 14C16.7167 14 16.4792 13.9042 16.2875 13.7125C16.0958 13.5208 16 13.2833 16 13C16 12.7167 16.0958 12.4792 16.2875 12.2875C16.4792 12.0958 16.7167 12 17 12C17.2833 12 17.5208 12.0958 17.7125 12.2875C17.9042 12.4792 18 12.7167 18 13C18 13.2833 17.9042 13.5208 17.7125 13.7125C17.5208 13.9042 17.2833 14 17 14ZM13 18C12.7167 18 12.4792 17.9042 12.2875 17.7125C12.0958 17.5208 12 17.2833 12 17C12 16.7167 12.0958 16.4792 12.2875 16.2875C12.4792 16.0958 12.7167 16 13 16C13.2833 16 13.5208 16.0958 13.7125 16.2875C13.9042 16.4792 14 16.7167 14 17C14 17.2833 13.9042 17.5208 13.7125 17.7125C13.5208 17.9042 13.2833 18 13 18ZM9 18C8.71667 18 8.47917 17.9042 8.2875 17.7125C8.09583 17.5208 8 17.2833 8 17C8 16.7167 8.09583 16.4792 8.2875 16.2875C8.47917 16.0958 8.71667 16 9 16C9.28333 16 9.52083 16.0958 9.7125 16.2875C9.90417 16.4792 10 16.7167 10 17C10 17.2833 9.90417 17.5208 9.7125 17.7125C9.52083 17.9042 9.28333 18 9 18ZM17 18C16.7167 18 16.4792 17.9042 16.2875 17.7125C16.0958 17.5208 16 17.2833 16 17C16 16.7167 16.0958 16.4792 16.2875 16.2875C16.4792 16.0958 16.7167 16 17 16C17.2833 16 17.5208 16.0958 17.7125 16.2875C17.9042 16.4792 18 16.7167 18 17C18 17.2833 17.9042 17.5208 17.7125 17.7125C17.5208 17.9042 17.2833 18 17 18Z" fill="white"/>
</g>
<defs>
<filter id="filter0_d_187_103" x="-3" y="0" width="32" height="32" filterUnits="userSpaceOnUse" color-interpolation-filters="sRGB">
<feFlood flood-opacity="0" result="BackgroundImageFix"/>
<feColorMatrix in="SourceAlpha" type="matrix" values="0 0 0 0 0 0 0 0 0 0 0 0 0 0 0 0 0 0 127 0" result="hardAlpha"/>
<feOffset dy="4"/>
<feGaussianBlur stdDeviation="2"/>
<feComposite in2="hardAlpha" operator="out"/>
<feColorMatrix type="matrix" values="0 0 0 0 0 0 0 0 0 0 0 0 0 0 0 0 0 0 0.25 0"/>
<feBlend mode="normal" in2="BackgroundImageFix" result="effect1_dropShadow_187_103"/>
<feBlend mode="normal" in="SourceGraphic" in2="effect1_dropShadow_187_103" result="shape"/>
</filter>
</defs>
</svg>
